<svg width="18" height="10" viewBox="0 0 18 10" fill="none" xmlns="http://www.w3.org/2000/svg">
<path d="M0.350165 0.420165C0.467362 0.293754 0.608312 0.191668 0.764966 0.119736C0.92162 0.0478032 1.09091 0.00743381 1.26317 0.000933543C1.43542 -0.00556672 1.60727 0.0219292 1.7689 0.0818508C1.93053 0.141772 2.07878 0.232946 2.20517 0.350165L8.75017 6.52242L15.2952 0.350165C15.4216 0.23296 15.5698 0.141799 15.7314 0.0818858C15.8931 0.0219729 16.0649 -0.00551816 16.2372 0.000981942C16.4094 0.00748204 16.5787 0.0478462 16.7354 0.11977C16.892 0.191693 17.033 0.293767 17.1502 0.420165C17.2674 0.546562 17.3585 0.694807 17.4184 0.856435C17.4784 1.01806 17.5059 1.18991 17.4994 1.36216C17.4929 1.53441 17.4525 1.7037 17.3806 1.86035C17.3086 2.01701 17.2066 2.15796 17.0802 2.27517L9.64267 9.27517C9.39997 9.50025 9.08118 9.62532 8.75017 9.62532C8.41916 9.62532 8.10037 9.50025 7.85767 9.27517L0.420165 2.27517C0.293754 2.15797 0.191667 2.01702 0.119735 1.86036C0.0478028 1.70371 0.00743381 1.53442 0.000933543 1.36216C-0.00556672 1.18991 0.0219292 1.01806 0.0818508 0.856427C0.141772 0.694798 0.232946 0.546555 0.350165 0.420165Z" fill="#457B9D"/>
</svg>
