<svg width="18" height="10" viewBox="0 0 18 10" fill="none" xmlns="http://www.w3.org/2000/svg">
<path d="M17.1501 9.2052C17.0329 9.33161 16.892 9.4337 16.7353 9.50563C16.5787 9.57756 16.4094 9.61793 16.2371 9.62443C16.0649 9.63093 15.893 9.60344 15.7314 9.54352C15.5698 9.48359 15.4215 9.39242 15.2951 9.2752L8.75014 3.10295L2.20514 9.2752C2.07874 9.39241 1.9305 9.48357 1.76887 9.54348C1.60724 9.60339 1.43539 9.63088 1.26314 9.62438C1.09089 9.61788 0.921602 9.57752 0.764948 9.5056C0.608295 9.43367 0.467342 9.3316 0.350137 9.2052C0.232932 9.0788 0.141771 8.93056 0.0818584 8.76893C0.0219455 8.6073 -0.00554643 8.43546 0.000953674 8.2632C0.00745378 8.09095 0.0478179 7.92166 0.119741 7.76501C0.191665 7.60836 0.29374 7.46741 0.420137 7.3502L7.85764 0.3502C8.10034 0.125112 8.41913 4.17828e-05 8.75014 4.17828e-05C9.08115 4.17828e-05 9.39994 0.125112 9.64264 0.3502L17.0801 7.3502C17.2066 7.4674 17.3086 7.60835 17.3806 7.765C17.4525 7.92166 17.4929 8.09094 17.4994 8.2632C17.5059 8.43546 17.4784 8.60731 17.4185 8.76894C17.3585 8.93057 17.2674 9.07881 17.1501 9.2052Z" fill="#457B9D"/>
</svg>
