<svg width="22" height="20" viewBox="0 0 22 20" fill="none" xmlns="http://www.w3.org/2000/svg">
<path d="M20.2227 0.403174C19.9542 0.134279 19.6024 0 19.2505 0C18.8986 0 18.5468 0.134279 18.2784 0.403174L1.77735 16.9038C1.24007 17.441 1.24007 18.3111 1.77735 18.8482C2.04591 19.1167 2.39773 19.251 2.74951 19.251C3.10147 19.251 3.45313 19.1167 3.72168 18.8482L20.2227 2.34751C20.7599 1.8104 20.7599 0.939944 20.2227 0.403174Z" fill="#C5C5C5"/>
<path d="M3.14968 13.5872L6.89627 9.8405C6.89364 9.76796 6.87488 9.69952 6.87488 9.62563C6.87488 7.35365 8.72386 5.50302 10.996 5.50027C10.9973 5.49899 11.0001 5.49899 11.0028 5.50027C11.0028 5.50027 11.0028 5.50027 11.004 5.50027C11.0766 5.50027 11.1437 5.51775 11.2147 5.52178L13.683 3.05373C12.8544 2.87649 11.9829 2.75024 11.0067 2.75024C11.0067 2.75024 11.0067 2.75024 11.0054 2.75024C11.004 2.75024 11.0028 2.75024 11 2.75024C11 2.75024 10.9972 2.75024 10.9946 2.75024C10.9933 2.75024 10.9933 2.75024 10.9933 2.75024C5.65816 2.75299 2.69314 5.65341 0.284013 8.78737C-0.0946709 9.28188 -0.0946709 9.96939 0.284013 10.4635C1.13952 11.5767 2.07276 12.6526 3.14968 13.5872Z" fill="#C5C5C5"/>
<path d="M21.7161 8.78739C20.8606 7.67462 19.9274 6.59863 18.8504 5.66406L15.1039 9.41072C15.1065 9.48326 15.1253 9.55171 15.1253 9.62559C15.1253 11.8976 13.2763 13.7479 11.0042 13.751C11.0029 13.751 11.0029 13.751 11.0029 13.751C11.0029 13.751 11.0015 13.751 11.0001 13.751C10.9988 13.751 10.9974 13.751 10.9974 13.751C10.9974 13.751 10.9974 13.751 10.9961 13.751C10.9236 13.751 10.8565 13.7332 10.7852 13.7294L8.31717 16.1975C9.14571 16.3748 10.0172 16.501 10.9935 16.501C10.9935 16.501 10.9935 16.501 10.9948 16.501H10.9961C10.9974 16.501 11.0001 16.501 11.0001 16.501C11.0001 16.501 11.0015 16.501 11.0029 16.501C11.0029 16.501 11.0029 16.501 11.0042 16.501H11.0055C11.0069 16.501 11.0069 16.501 11.0069 16.501C11.0109 16.501 11.0163 16.501 11.0216 16.501C11.027 16.4997 11.0324 16.4997 11.0405 16.501C16.3528 16.4862 19.3111 13.5912 21.7161 10.4635C22.0947 9.9694 22.0947 9.2819 21.7161 8.78739Z" fill="#C5C5C5"/>
</svg>
