<svg width="20" height="20" viewBox="0 0 20 20" fill="none" xmlns="http://www.w3.org/2000/svg">
<path fill-rule="evenodd" clip-rule="evenodd" d="M9.99993 0C15.5225 0 20 4.47716 20 10C20 15.5229 15.5225 20 9.99993 20C4.47712 20 0 15.5229 0 10C0 4.47716 4.47712 0 9.99993 0ZM9.63848 0.748295C8.49764 0.908845 7.41134 1.82554 6.5681 3.3587C6.3235 3.80342 6.1028 4.29473 5.91051 4.82522C7.0571 4.53709 8.31664 4.36721 9.63848 4.34094V0.748295ZM5.06531 5.0654C5.30451 4.31479 5.59706 3.6242 5.93471 3.01032C6.3527 2.25029 6.8488 1.59398 7.40774 1.08988C4.36832 1.97262 1.97259 4.36839 1.08984 7.40785C1.59394 6.8489 2.25023 6.3528 3.01028 5.9348C3.62417 5.59715 4.31472 5.30455 5.06531 5.0654ZM4.82516 5.91055C4.53702 7.05715 4.36717 8.3167 4.34087 9.63855H0.748243C0.908792 8.4977 1.82549 7.4114 3.35867 6.5682C3.80337 6.3236 4.29467 6.1029 4.82516 5.91055ZM5.06391 9.63855C5.09376 8.196 5.30146 6.8417 5.64506 5.6451C6.84165 5.3015 8.19594 5.0938 9.63848 5.06395V6.6254C9.10033 8.0031 8.00274 9.1006 6.625 9.63855H5.06391ZM4.34087 10.3615H0.748243C0.908792 11.5023 1.82549 12.5885 3.35867 13.4318C3.80337 13.6764 4.29467 13.8971 4.82516 14.0894C4.53702 12.9428 4.36717 11.6833 4.34087 10.3615ZM5.64506 14.3549C5.30146 13.1583 5.09376 11.804 5.06391 10.3615H6.625C8.00274 10.8994 9.10033 11.9969 9.63848 13.3746V14.9361C8.19594 14.9062 6.84165 14.6985 5.64506 14.3549ZM5.06531 14.9346C4.31472 14.6954 3.62417 14.4028 3.01028 14.0652C2.25023 13.6472 1.59394 13.1511 1.08984 12.5921C1.97259 15.6316 4.36832 18.0274 7.40774 18.9101C6.8488 18.406 6.3527 17.7497 5.93471 16.9897C5.59706 16.3758 5.30451 15.6852 5.06531 14.9346ZM9.63848 19.2517C8.49764 19.0911 7.41134 18.1745 6.5681 16.6413C6.3235 16.1966 6.1028 15.7052 5.91051 15.1748C7.0571 15.4629 8.31664 15.6328 9.63848 15.659V19.2517ZM12.5921 18.9101C13.151 18.406 13.647 17.7497 14.065 16.9897C14.4025 16.3758 14.6955 15.6852 14.9345 14.9346C15.685 14.6954 16.3755 14.4028 16.9895 14.0652C17.7495 13.6472 18.406 13.1511 18.91 12.5921C18.027 15.6316 15.6315 18.0274 12.5921 18.9101ZM14.0895 15.1748C13.897 15.7052 13.6761 16.1966 13.4316 16.6413C12.5885 18.1745 11.5022 19.0911 10.3613 19.2517V15.659C11.6832 15.6328 12.9427 15.4629 14.0895 15.1748ZM15.1745 14.0894C15.705 13.8971 16.1965 13.6764 16.641 13.4318C18.1745 12.5886 19.091 11.5023 19.2515 10.3615H15.659C15.6325 11.6833 15.4625 12.9428 15.1745 14.0894ZM14.936 10.3615C14.906 11.804 14.6985 13.1583 14.3545 14.3549C13.1582 14.6985 11.8039 14.9062 10.3613 14.9361V13.3757C10.8993 11.9975 11.9972 10.8996 13.3753 10.3615H14.936ZM15.659 9.63855H19.2515C19.091 8.4977 18.1745 7.4114 16.641 6.5682C16.1965 6.3236 15.705 6.1029 15.1745 5.91055C15.4625 7.05715 15.6325 8.3167 15.659 9.63855ZM14.3545 5.6451C14.6985 6.8417 14.906 8.196 14.936 9.63855H13.3753C11.9972 9.10045 10.8993 8.00245 10.3613 6.62425V5.06395C11.8039 5.0938 13.1582 5.3015 14.3545 5.6451ZM14.9345 5.0654C15.685 5.30455 16.3755 5.59715 16.9895 5.9348C17.7495 6.3528 18.406 6.8489 18.91 7.40785C18.027 4.36839 15.6315 1.97262 12.5921 1.08988C13.151 1.59398 13.647 2.25029 14.065 3.01032C14.4025 3.6242 14.6955 4.31479 14.9345 5.0654ZM10.3613 0.748295C11.5022 0.908845 12.5885 1.82554 13.4316 3.3587C13.6761 3.80342 13.897 4.29473 14.0895 4.82522C12.9427 4.53709 11.6832 4.36721 10.3613 4.34094V0.748295Z" fill="white"/>
</svg>
